<svg version="1.1" id="Layer_1" xmlns="http://www.w3.org/2000/svg" xmlns:xlink="http://www.w3.org/1999/xlink" x="0px" y="0px"
	 width="100%" viewBox="0 0 99 75" enable-background="new 0 0 99 75" xml:space="preserve">
<path fill="#000000" opacity="1.000000" stroke="none" 
	d="
M1.294806,46.222000 
	C1.000000,31.851479 1.047830,17.702612 0.946081,3.554821 
	C0.931580,1.538398 1.198889,0.927159 3.439367,0.934117 
	C34.732269,1.031302 66.025742,1.043246 97.318451,0.918837 
	C99.853073,0.908760 100.060486,1.637651 100.052536,3.811917 
	C99.967903,26.948601 99.961128,50.085884 100.061195,73.222443 
	C100.071007,75.492241 99.723343,76.083015 97.284065,76.074196 
	C66.157722,75.961662 35.030643,75.953575 3.904419,76.081047 
	C1.177661,76.092209 0.904039,75.190445 0.951140,72.910767 
	C1.088648,66.255478 1.000000,59.595516 1.000000,52.468693 
	C1.425326,51.628571 1.919768,51.453907 2.866125,51.604969 
	C4.651277,52.807652 5.042397,54.455173 5.682794,55.975681 
	C8.684872,63.103569 14.166710,66.625839 21.794535,67.173904 
	C27.463264,67.581200 33.004906,66.353188 39.013180,66.183319 
	C51.535950,67.654686 63.758415,68.235481 75.723724,65.821922 
	C82.093895,64.536980 85.915398,57.670116 86.025970,50.986252 
	C86.058754,49.004738 85.716576,47.023335 86.151154,44.668331 
	C89.207504,41.762249 90.395218,38.377502 91.111359,34.365925 
	C91.593079,33.663769 91.962883,33.343327 92.377136,33.071224 
	C93.691193,32.208107 95.780563,31.975779 95.705513,29.880796 
	C95.614296,27.334364 93.046448,27.939873 91.323830,26.909740 
	C90.234337,26.688267 90.181686,25.162636 89.057419,25.779627 
	C89.229050,26.041660 89.426224,26.283915 89.884071,26.776398 
	C90.919556,28.151999 91.148659,29.367395 90.661934,31.058571 
	C88.013893,34.656677 83.925545,33.240543 80.445419,34.855194 
	C78.912384,35.125645 77.852844,34.959797 76.660400,33.932751 
	C75.251549,30.893839 76.678291,28.470280 77.414459,25.591869 
	C78.403229,23.698004 78.553650,21.987307 78.874504,19.942612 
	C79.124237,19.389568 79.251419,19.182335 79.641808,18.725445 
	C80.870560,17.906906 81.836235,17.866245 82.895302,18.289503 
	C83.499535,18.530987 83.647484,18.305151 82.981071,18.323465 
	C82.314659,18.341784 83.041794,17.564804 82.356308,17.855417 
	C81.488785,16.839960 81.112885,15.903205 80.597939,15.052034 
	C79.546913,13.314752 79.282524,10.147066 76.632675,10.716109 
	C73.942177,11.293883 72.642227,14.069705 71.901283,16.715944 
	C71.586121,17.841522 72.087357,19.024353 72.131775,20.186522 
	C72.191948,21.760977 71.925934,23.259516 70.340111,23.998030 
	C68.619629,24.799255 67.474609,23.610292 66.474205,22.502699 
	C64.352753,20.153929 62.367332,17.691967 59.636669,15.967868 
	C47.528599,8.323009 33.239708,11.520624 25.936190,23.980043 
	C23.566914,28.021906 20.856865,30.497349 16.258892,31.672081 
	C10.810562,33.064072 7.017445,36.800148 5.206892,42.296253 
	C4.790917,43.558990 4.455862,44.862171 3.309198,46.156456 
	C2.552875,46.544514 2.073822,46.556938 1.294806,46.222000 
z"/>
<path fill="#5F818B" opacity="1.000000" stroke="none" 
	d="
M3.340050,51.813423 
	C2.505473,51.946175 2.044170,51.712040 1.291434,51.738953 
	C1.000000,50.285641 1.000000,48.571285 1.000000,46.428463 
	C1.415967,45.994972 1.831933,45.989941 2.596416,45.865757 
	C4.782410,47.433403 4.785432,49.367500 3.340050,51.813423 
z"/>
<path fill="#3B5D6D" opacity="1.000000" stroke="none" 
	d="
M2.950168,52.566925 
	C3.003354,50.339733 3.039931,48.499153 3.010721,46.202591 
	C2.950186,37.328922 9.373580,30.712120 18.761086,29.098475 
	C20.849560,28.739481 21.996677,28.174314 22.782024,26.252705 
	C28.464409,12.348913 42.929218,6.806623 56.585629,12.511231 
	C61.415241,14.528676 64.732460,17.688152 67.890259,21.405272 
	C68.537498,22.167154 68.406067,24.072542 70.073402,23.107946 
	C71.433968,22.320816 71.112320,20.782318 70.688393,19.489534 
	C69.472237,15.780747 72.620369,9.360117 76.236801,7.851282 
	C77.937538,7.141709 78.880829,8.021125 79.511375,9.121218 
	C80.964485,11.656399 82.861435,14.027482 83.128357,17.494823 
	C82.469742,18.828119 81.389725,18.347818 80.244125,18.841139 
	C79.979034,19.085884 79.980118,18.980453 80.032814,18.978952 
	C78.981224,20.656103 79.716690,22.679493 79.079910,24.758308 
	C78.420738,27.516211 77.743149,29.958103 77.015015,32.783001 
	C77.250412,36.163460 75.847054,38.636955 74.330154,41.441307 
	C69.178246,48.590569 64.659790,55.859791 56.739952,60.458366 
	C55.660526,61.212036 54.767311,61.583652 53.692394,62.367931 
	C49.074917,65.055328 44.851559,67.796677 39.199081,67.316513 
	C31.877581,69.877953 24.524038,69.256142 17.373631,68.941780 
	C10.978448,68.660637 4.094136,60.286568 2.950168,52.566925 
z"/>
<path fill="#309FD2" opacity="1.000000" stroke="none" 
	d="
M39.062584,67.515167 
	C43.252861,65.016457 48.203213,64.106247 52.606407,61.106449 
	C57.722366,58.963013 62.925964,60.024158 68.217705,58.885525 
	C77.576859,56.824501 79.586502,52.036476 74.600060,44.433037 
	C74.058899,43.607853 73.493805,42.810234 73.277420,41.468773 
	C73.390259,38.221413 75.468857,36.065006 76.641815,33.288589 
	C77.468346,34.195465 78.409225,33.881676 79.567963,33.893822 
	C80.883904,34.373718 81.412544,35.299370 81.492119,36.271843 
	C81.779625,39.785393 83.691505,42.036861 86.907776,43.836937 
	C91.032288,58.218189 82.877304,68.997406 68.303185,68.993286 
	C60.151672,68.990982 52.000134,69.015312 43.848663,68.999275 
	C42.244663,68.996117 40.481747,69.496483 39.062584,67.515167 
z"/>
<path fill="#3E5F6F" opacity="1.000000" stroke="none" 
	d="
M87.473633,44.144772 
	C80.413658,43.577881 80.025330,43.059021 79.962692,34.315521 
	C79.907906,31.655968 81.537392,31.982065 82.977142,31.842804 
	C85.030342,31.644203 87.201546,32.489548 89.492325,30.999321 
	C91.208443,31.151213 91.823906,32.144726 92.159477,33.762741 
	C92.078918,36.438183 92.272194,38.809052 91.803070,41.040676 
	C91.425697,42.835869 90.045410,44.197960 87.473633,44.144772 
z"/>
<path fill="#36A2D2" opacity="1.000000" stroke="none" 
	d="
M92.581474,34.091572 
	C90.937599,33.682175 90.259331,32.749775 89.876549,31.176785 
	C90.028030,29.691586 90.227814,28.561131 89.077263,27.381996 
	C89.259811,26.418076 89.774330,26.095047 90.736595,25.948956 
	C93.274086,26.565636 96.182556,24.663170 97.742714,27.541468 
	C99.436501,30.666286 97.056847,33.825954 92.581474,34.091572 
z"/>
<path fill="#476674" opacity="1.000000" stroke="none" 
	d="
M91.019775,25.576180 
	C90.566353,26.288692 90.079033,26.619164 89.290565,27.001972 
	C87.338554,27.666214 86.152138,27.576866 86.016022,25.375462 
	C85.927208,23.939121 86.139641,22.382486 87.596725,22.241629 
	C89.360229,22.071152 91.174469,22.705498 91.019775,25.576180 
z"/>
<path fill="#627D89" opacity="1.000000" stroke="none" 
	d="
M79.411179,24.829092 
	C77.572067,23.055239 79.190300,21.294991 79.824127,19.204826 
	C79.965012,20.846256 79.844521,22.715061 79.411179,24.829092 
z"/>
<path fill="#627D89" opacity="1.000000" stroke="none" 
	d="
M80.316315,19.051867 
	C80.565910,18.198263 81.496124,18.042646 82.801224,17.900274 
	C83.168846,20.102730 81.447243,18.547029 80.316315,19.051867 
z"/>
<path fill="#000000" opacity="1.000000" stroke="none" 
	d="
M29.267853,59.700371 
	C21.471798,61.750378 14.680486,59.342804 12.102203,54.009674 
	C9.979050,49.617970 11.032305,45.486313 13.817787,41.992619 
	C16.728708,38.341602 20.876249,36.041386 25.603867,37.197685 
	C29.229246,38.084400 29.608036,36.940079 30.135796,33.816128 
	C32.379784,20.533352 45.127003,15.390764 54.762398,20.967617 
	C56.237251,21.821245 57.499199,22.829445 57.857944,25.011841 
	C57.337425,25.714039 57.163113,25.826694 56.699772,26.053391 
	C56.016022,26.269583 55.616535,26.346146 54.916115,26.413918 
	C54.049141,26.449461 53.476429,26.445593 52.656158,26.614111 
	C52.080555,26.872423 51.782013,27.072350 51.338417,27.537189 
	C49.806995,29.851685 51.118137,32.493851 49.518631,34.822868 
	C48.668247,35.389053 48.058689,35.277996 47.428047,35.069313 
	C41.860802,33.227085 41.859665,33.230515 39.676476,38.939529 
	C39.305237,39.404140 39.130077,39.568989 38.645420,39.921318 
	C36.358173,40.933319 34.159607,40.997650 31.934410,42.115372 
	C29.823812,44.439724 30.722498,46.997536 30.483263,49.367970 
	C30.145792,52.711777 31.354057,56.205151 29.267853,59.700371 
z"/>
<path fill="#000000" opacity="1.000000" stroke="none" 
	d="
M72.997452,41.436829 
	C80.849678,45.502407 81.029060,55.239937 74.497780,59.098862 
	C73.217522,59.855282 72.061913,59.858078 70.405334,60.071342 
	C65.624222,60.857380 61.205799,60.402527 56.438820,60.098747 
	C57.586689,56.549599 61.190968,55.731976 63.559448,53.376816 
	C67.143288,49.813137 68.478600,44.591228 72.997452,41.436829 
z"/>
<path fill="#37A3D4" opacity="1.000000" stroke="none" 
	d="
M38.720009,39.174736 
	C38.975529,37.688583 38.864304,36.540524 38.992420,35.419823 
	C39.149693,34.044075 38.164421,31.432442 40.874382,32.093689 
	C43.334919,32.694077 47.348881,29.250521 48.570534,34.743679 
	C50.465004,35.903191 50.310780,37.557301 50.693329,39.486164 
	C50.949608,41.525120 50.757874,43.040119 49.549984,44.744461 
	C48.623302,49.035084 50.590275,54.072968 44.366554,55.916225 
	C42.809635,56.716709 41.475075,56.840027 39.728893,56.745300 
	C38.859985,56.350742 38.518650,55.950588 38.218964,55.044533 
	C38.012646,53.869267 37.951099,53.074192 37.713989,51.885670 
	C37.778183,47.483837 36.663113,43.405003 38.720009,39.174736 
z"/>
<path fill="#36596A" opacity="1.000000" stroke="none" 
	d="
M49.422234,45.344658 
	C49.191509,43.639847 49.158749,42.204338 49.172485,40.341339 
	C49.875542,35.239674 49.262821,30.534071 49.781616,25.466103 
	C50.453285,25.059305 50.910492,25.037577 51.707733,25.067837 
	C52.780952,25.662258 53.612949,25.475851 54.689278,25.283234 
	C55.417610,25.084591 55.880936,25.044720 56.690758,25.051033 
	C59.986443,30.730455 57.938267,36.752014 58.367104,42.580807 
	C58.438320,43.548756 58.015629,44.528019 57.998779,45.999954 
	C57.987671,46.473183 58.015713,46.596901 58.037788,46.656364 
	C56.375641,48.054718 54.639458,49.304993 52.188225,49.967018 
	C49.223137,49.472992 50.459770,47.018951 49.422234,45.344658 
z"/>
<path fill="#2C9DD0" opacity="1.000000" stroke="none" 
	d="
M29.903347,40.351028 
	C32.523590,39.674580 34.832516,39.345840 37.536095,39.084137 
	C39.206593,44.422493 38.162540,49.776966 38.510986,55.513977 
	C37.708191,59.119484 34.626720,58.525551 32.161461,59.761116 
	C31.798126,59.964512 31.382397,59.993778 31.179737,59.945282 
	C28.725222,57.579411 29.593473,54.659851 29.535902,51.962593 
	C29.455818,48.210701 29.396053,44.452274 29.903347,40.351028 
z"/>
<path fill="#000000" opacity="1.000000" stroke="none" 
	d="
M57.913651,25.100454 
	C60.288857,24.502975 60.500465,26.574306 61.255375,27.893894 
	C65.619072,35.521664 65.359009,37.543598 59.119320,44.331547 
	C56.807461,45.147655 57.554516,43.406055 57.546886,42.593357 
	C57.494743,37.041023 57.437359,31.487270 57.748680,25.496353 
	C57.940769,25.058205 57.925884,25.086054 57.913651,25.100454 
z"/>
<path fill="#78C7E6" opacity="1.000000" stroke="none" 
	d="
M29.990236,39.675262 
	C30.256214,46.372467 29.274912,52.773949 30.897678,59.496201 
	C30.542198,59.924171 30.107317,59.951557 29.345724,59.988052 
	C29.445261,53.120258 28.041430,46.177170 29.990236,39.675262 
z"/>
<path fill="#668391" opacity="1.000000" stroke="none" 
	d="
M57.713455,25.034740 
	C58.029922,31.479219 58.119072,37.900234 58.586807,44.467999 
	C58.799446,45.056217 58.633507,45.497684 58.227619,46.206169 
	C55.838772,39.743629 57.522770,32.828114 57.016296,25.558556 
	C57.037258,25.097218 57.486145,25.011276 57.713455,25.034740 
z"/>
<path fill="#6DA6BB" opacity="1.000000" stroke="none" 
	d="
M32.216515,59.979065 
	C32.992741,57.867352 35.403839,58.086487 37.534470,57.046555 
	C38.198025,56.685101 38.460476,56.354637 38.987213,55.956512 
	C40.614758,55.957130 41.923435,55.981232 43.625610,56.009972 
	C40.578976,58.355507 36.702457,59.447845 32.216515,59.979065 
z"/>
<path fill="#B2D8FB" opacity="1.000000" stroke="none" 
	d="
M55.722599,59.786453 
	C60.417324,59.867943 64.753227,59.948868 69.554855,60.093811 
	C64.726906,62.069778 59.257225,60.677010 53.407700,61.005325 
	C53.453316,60.004250 54.384995,59.847702 55.722599,59.786453 
z"/>
<path fill="#749097" opacity="1.000000" stroke="none" 
	d="
M52.020409,50.258339 
	C53.640007,48.889339 54.975754,46.971325 57.692726,46.761360 
	C56.878311,49.164478 55.186184,50.830517 52.020409,50.258339 
z"/>
<path fill="#79CDD8" opacity="1.000000" stroke="none" 
	d="
M39.263988,55.608101 
	C39.008625,56.194096 38.711178,56.455158 38.142818,56.840130 
	C37.889210,51.331547 37.906513,45.699055 37.927277,39.608868 
	C38.106266,39.098782 38.281788,39.046398 38.718964,38.909264 
	C39.040684,43.251102 39.100750,47.677692 39.184277,52.571732 
	C39.271194,53.193398 39.334648,53.347618 39.314831,53.737717 
	C39.228340,54.410122 39.225121,54.846645 39.263988,55.608101 
z"/>
<path fill="#3B5D6D" opacity="1.000000" stroke="none" 
	d="
M49.634605,25.282604 
	C49.882298,29.802462 49.768524,34.523891 49.436867,39.579586 
	C49.151814,38.531532 49.084652,37.149208 48.972168,35.352318 
	C49.042274,31.786556 49.157703,28.635366 49.634605,25.282604 
z"/>
<path fill="#3B5D6D" opacity="1.000000" stroke="none" 
	d="
M54.592670,25.074289 
	C54.224392,25.925524 53.396172,26.108334 52.246811,25.321600 
	C52.775524,25.087921 53.503288,25.056019 54.592670,25.074289 
z"/>
<path fill="#6DA6BB" opacity="1.000000" stroke="none" 
	d="
M39.325554,53.869610 
	C39.231556,53.973598 39.167278,53.506428 39.187508,53.272804 
	C39.465065,53.234993 39.535667,53.477139 39.325554,53.869610 
z"/>
</svg>