<svg version="1.1" id="Layer_1" xmlns="http://www.w3.org/2000/svg" xmlns:xlink="http://www.w3.org/1999/xlink" x="0px" y="0px"
	 width="100%" viewBox="0 0 200 200" enable-background="new 0 0 200 200" xml:space="preserve">
<path fill="#000000" opacity="1.000000" stroke="none" 
	d="
M124.000000,201.000000 
	C83.858139,201.000000 44.216202,200.969757 4.574569,201.065140 
	C1.807170,201.071808 0.894415,200.776627 0.900979,197.578598 
	C1.033282,133.119186 1.025255,68.659409 0.916780,4.199927 
	C0.911944,1.326134 1.626125,0.926327 4.296246,0.930045 
	C68.755783,1.019787 133.215515,1.018163 197.675064,0.934380 
	C200.285721,0.930987 201.091919,1.235793 201.086761,4.171238 
	C200.973175,68.797272 200.980148,133.423569 201.071732,198.049667 
	C201.075439,200.666260 200.336090,201.064651 197.953766,201.055801 
	C173.469452,200.964798 148.984665,201.000000 124.000000,201.000000 
z"/>
<path fill="#005AF0" opacity="1.000000" stroke="none" 
	d="
M71.080727,165.963379 
	C50.509964,149.360947 48.433750,118.813797 63.979103,100.236153 
	C67.670975,95.824135 72.057816,92.658585 76.439720,89.302994 
	C78.611893,87.639580 80.856415,87.067650 82.017784,90.810265 
	C83.077538,94.225418 85.567070,97.471840 85.658142,100.840431 
	C85.763023,104.719643 80.813507,105.372208 78.396782,107.853745 
	C62.731937,123.938560 69.497215,152.070526 90.961105,158.426041 
	C111.985512,164.651398 132.562607,150.687653 130.833618,126.452202 
	C129.850006,112.665024 120.343529,101.007568 104.191689,98.919624 
	C101.445145,98.564575 98.906609,97.923073 96.087891,98.900795 
	C93.618225,99.757454 91.647102,98.696045 91.011757,95.845177 
	C90.766006,94.742477 90.366219,93.651817 89.883812,92.627647 
	C85.700729,83.746834 86.125702,83.571594 96.077965,82.892395 
	C110.564186,81.903786 123.146126,86.163704 133.366821,96.109756 
	C141.250916,103.781990 146.092834,113.407661 147.024994,124.709961 
	C148.144501,138.283829 144.742752,150.568771 135.590622,160.608841 
	C127.603378,169.371017 117.747139,175.272934 105.386589,176.033890 
	C92.819176,176.807587 81.208145,174.638199 71.080727,165.963379 
z"/>
<path fill="#005AF1" opacity="1.000000" stroke="none" 
	d="
M54.544792,70.038368 
	C52.974949,61.386284 54.569134,54.119884 61.196995,48.216793 
	C67.835426,42.304287 78.500565,42.390282 85.760490,46.378078 
	C87.555618,47.364124 88.267891,48.756771 86.087410,50.471424 
	C83.028900,52.876537 81.316475,57.598019 75.690292,54.225544 
	C72.801598,52.493992 66.790085,56.563911 65.426849,60.090855 
	C63.727287,64.487915 65.007423,71.127167 68.774879,72.095268 
	C75.496796,73.822548 77.133064,78.811897 78.757278,84.236641 
	C68.587906,88.199699 57.257114,79.127235 54.544792,70.038368 
z"/>
<path fill="#005FEE" opacity="1.000000" stroke="none" 
	d="
M94.453094,41.998215 
	C92.406136,43.572842 91.232094,47.023975 89.136086,46.183292 
	C86.574089,45.155712 86.969238,41.754417 86.986374,39.093838 
	C87.025665,32.992104 91.655319,26.716166 96.714119,26.012115 
	C105.081711,24.847570 110.713799,28.124819 113.166008,35.585270 
	C115.187851,41.736423 112.452232,47.816315 106.239449,50.943062 
	C105.222076,51.455082 104.163284,51.884228 103.139229,52.383644 
	C99.707695,54.057144 96.790665,52.469536 93.854668,50.950909 
	C93.156876,50.589985 92.759666,49.915127 93.332375,49.412209 
	C95.600517,47.420441 96.781540,43.905293 100.585098,44.014790 
	C102.936890,44.082497 104.516815,42.875477 104.867065,40.740448 
	C105.141769,39.065990 105.767014,36.939949 103.990654,35.625950 
	C102.416092,34.461220 100.555801,33.271412 98.521851,34.272099 
	C95.494568,35.761490 94.717995,38.595848 94.453094,41.998215 
z"/>
<path fill="#0059F1" opacity="1.000000" stroke="none" 
	d="
M94.838516,69.316437 
	C92.449966,76.021317 92.448692,76.022942 85.292885,81.726433 
	C84.177361,77.072609 79.483139,73.022842 83.884087,67.756676 
	C84.564995,66.941910 84.805054,65.091736 84.366539,64.117638 
	C81.699577,58.193317 86.744423,56.019688 89.681725,52.927643 
	C91.672310,50.832188 92.285385,52.943569 93.120094,54.400223 
	C95.754395,58.997330 94.893028,64.000526 94.838516,69.316437 
z"/>
</svg>